<svg width="24" height="24" viewBox="0 0 24 24" xmlns="http://www.w3.org/2000/svg" xmlns:xlink="http://www.w3.org/1999/xlink"><title>v</title><defs><path id="a" d="M0 0h19.344v18.866H0z"/></defs><g transform="translate(2.200000, 2.500000)" fill="none" fill-rule="evenodd"><mask id="b" fill="#fff"><use xlink:href="#a"/></mask><path d="M9.671 0C4.331 0 0 4.33 0 9.673c0 4.272 2.77 7.897 6.615 9.177.484.088.66-.21.66-.467 0-.23-.008-.838-.013-1.645-2.69.585-3.258-1.296-3.258-1.296-.44-1.118-1.074-1.415-1.074-1.415-.878-.6.066-.588.066-.588.971.069 1.482.997 1.482.997.863 1.478 2.263 1.05 2.815.804.088-.625.337-1.052.614-1.293-2.148-.244-4.406-1.074-4.406-4.78 0-1.056.377-1.92.996-2.596-.1-.245-.432-1.228.094-2.56 0 0 .812-.26 2.66.992a9.264 9.264 0 0 1 2.422-.326 9.277 9.277 0 0 1 2.42.326c1.847-1.252 2.658-.992 2.658-.992.528 1.332.196 2.315.096 2.56.62.676.995 1.54.995 2.595 0 3.716-2.262 4.534-4.417 4.773.348.299.657.889.657 1.791 0 1.293-.012 2.336-.012 2.653 0 .259.174.56.665.466A9.673 9.673 0 0 0 9.671 0" fill="#181717" mask="url(#b)"/></g></svg>