<svg width="24" height="24" viewBox="0 0 24 24" xmlns="http://www.w3.org/2000/svg"><title>Artboard</title><g fill="none" fill-rule="evenodd"><path d="M0 0h24v24H0z"/><path d="M8.29 20.127c7.547 0 11.675-6.253 11.675-11.675 0-.178 0-.354-.012-.53A8.349 8.349 0 0 0 22 5.798a8.19 8.19 0 0 1-2.357.645 4.118 4.118 0 0 0 1.804-2.27 8.223 8.223 0 0 1-2.605.997 4.107 4.107 0 0 0-6.993 3.742 11.65 11.65 0 0 1-8.457-4.287 4.106 4.106 0 0 0 1.27 5.477A4.073 4.073 0 0 1 2.8 9.59v.052a4.105 4.105 0 0 0 3.292 4.022 4.097 4.097 0 0 1-1.853.07 4.108 4.108 0 0 0 3.834 2.85A8.234 8.234 0 0 1 2 18.284a11.617 11.617 0 0 0 6.29 1.84" fill="#1DA1F2"/></g></svg>