<svg width="24" height="24" viewBox="0 0 24 24" xmlns="http://www.w3.org/2000/svg"><title>Artboard</title><g fill="none" fill-rule="evenodd"><path d="M14.75 3.251a1.693 1.693 0 0 0-2.117-1.081 1.693 1.693 0 0 0-1.081 2.116l4.34 13.347a1.675 1.675 0 0 0 2.04 1.034c.896-.262 1.436-1.204 1.143-2.07 0-.03-4.325-13.346-4.325-13.346z" fill="#ECB32D"/><path d="M8.03 5.43a1.693 1.693 0 0 0-2.116-1.082 1.693 1.693 0 0 0-1.081 2.116l4.34 13.347a1.675 1.675 0 0 0 2.04 1.035c.895-.263 1.436-1.205 1.142-2.07 0-.031-4.325-13.347-4.325-13.347z" fill="#63C1A0"/><path d="M20.218 14.296a1.693 1.693 0 0 0 1.081-2.116 1.693 1.693 0 0 0-2.116-1.082L5.82 15.454a1.675 1.675 0 0 0-1.035 2.04c.263.895 1.205 1.436 2.07 1.143.031 0 13.362-4.341 13.362-4.341z" fill="#E01A59"/><path d="M8.602 18.08c.865-.278 1.992-.648 3.197-1.034-.278-.866-.649-1.993-1.035-3.198l-3.197 1.035 1.035 3.197z" fill="#331433"/><path d="M15.337 15.887c1.204-.386 2.332-.757 3.197-1.035-.278-.865-.649-1.993-1.035-3.198l-3.197 1.035 1.035 3.198z" fill="#D62027"/><path d="M18.024 7.576a1.693 1.693 0 0 0 1.082-2.116 1.693 1.693 0 0 0-2.117-1.081L3.643 8.719a1.675 1.675 0 0 0-1.035 2.04c.263.895 1.205 1.436 2.07 1.143.03 0 13.346-4.326 13.346-4.326z" fill="#89D3DF"/><path d="M6.424 11.346c.865-.279 1.992-.65 3.197-1.035-.386-1.205-.757-2.333-1.035-3.198L5.39 8.148l1.035 3.198z" fill="#258B74"/><path d="M13.143 9.167c1.205-.386 2.333-.756 3.198-1.034-.387-1.205-.757-2.333-1.035-3.198L12.108 5.97l1.035 3.197z" fill="#819C3C"/></g></svg>